<svg viewBox="0 0 99.42 97.54" xmlns="http://www.w3.org/2000/svg"><g fill="#f15a24"><path d="m32 20.7c.67-1.28 1.62-2.93 2.86-5 2.75-4.7 3.27-6.47 3.27-8.08a7.55 7.55 0 0 0 -2.21-5.32 7.5 7.5 0 0 0 -5.42-2.3c-2.76 0-5.66 1.22-8.87 3.72a51.38 51.38 0 0 0 -8.25 8.46 62.84 62.84 0 0 0 -10 17.48 56 56 0 0 0 .73 40.23 64.6 64.6 0 0 0 12 18.84 36.81 36.81 0 0 0 6.89 6.14 13.81 13.81 0 0 0 7.64 2.67 7.33 7.33 0 0 0 5.23-2.2 7.5 7.5 0 0 0 2.21-5.34c0-1.65-.56-3.5-3.54-8.59-1.84-3.14-3.33-5.84-4.41-8a57.72 57.72 0 0 1 -4.42-12.15 54.92 54.92 0 0 1 -1.43-12.49 53.33 53.33 0 0 1 1.78-13.77 66.74 66.74 0 0 1 5.94-14.3z"/><path d="m96.05 29.59a62.1 62.1 0 0 0 -10-17.43 50.32 50.32 0 0 0 -8.29-8.46c-3.24-2.49-6.17-3.7-8.94-3.7a7.43 7.43 0 0 0 -5.38 2.31 7.52 7.52 0 0 0 -2.15 5.33c0 1.67.57 3.53 3.6 8.54 1.85 3.06 3.35 5.74 4.45 8a57.52 57.52 0 0 1 4.42 12.15 54.6 54.6 0 0 1 1.43 12.54 53.62 53.62 0 0 1 -1.77 13.86 66.79 66.79 0 0 1 -5.87 14.27c-.68 1.25-1.65 2.92-2.89 4.94-2.82 4.61-3.37 6.47-3.37 8.11a7.46 7.46 0 0 0 2.19 5.34 7.33 7.33 0 0 0 5.23 2.2 14.21 14.21 0 0 0 7.69-2.67 36.85 36.85 0 0 0 7-6.16 64.14 64.14 0 0 0 12-18.83 56.47 56.47 0 0 0 .71-40.29z"/></g></svg>