<svg xmlns="http://www.w3.org/2000/svg" viewBox="0 0 115.11 103.14"><defs><style>.cls-1{fill:#f15a24;}</style></defs><title>cb</title><g id="Layer_2" data-name="Layer 2"><g id="Layer_1-2" data-name="Layer 1"><path class="cls-1" d="M36.74,33.46V25.54a25.88,25.88,0,0,1,.23-4l.3,0,.12,0,.41,0,.32,0c9.7-1.52,10.74-8.22,10.74-11a9.83,9.83,0,0,0-3.46-7.7A11.69,11.69,0,0,0,37.56,0,27.27,27.27,0,0,0,27.3,1.9a20,20,0,0,0-8,5.74l-.08.1a20.32,20.32,0,0,0-3.67,7.69c-.64,2.66-.95,6.71-.95,12.75v6.41c0,5.18-1.86,5.53-3.12,5.77a30.22,30.22,0,0,0-3.38.8,10.75,10.75,0,0,0-5.94,3.67A10.66,10.66,0,0,0,0,51.57a10.73,10.73,0,0,0,2.49,7.35,11.13,11.13,0,0,0,6.75,3.46l.56.11c3,.49,4.75,1.66,4.75,6.22V75c0,6.46.41,11,1.25,13.94a17.59,17.59,0,0,0,5,8.27,21.51,21.51,0,0,0,7.6,4.45,27,27,0,0,0,9,1.52,12,12,0,0,0,8-2.7,9.89,9.89,0,0,0,3.54-7.8c0-5.86-3.86-10-10.41-10.93-.85-.12-1.13-.2-1.15-.2L37,81.43h0a30.84,30.84,0,0,1-.17-3.65v-8c0-6.57-.64-11.06-2-14.11a17,17,0,0,0-2.63-4.13,17.57,17.57,0,0,0,2.6-4.26C36.07,44.12,36.74,39.59,36.74,33.46Z"/><path class="cls-1" d="M113,44.85a10.74,10.74,0,0,0-5.94-3.7,28.06,28.06,0,0,0-3.22-.65c-1.33-.27-3.25-.77-3.25-5.91V28.18c0-6.68-.41-11.16-1.29-14.08a18,18,0,0,0-5.1-8.23,20.83,20.83,0,0,0-7.55-4.41A27.71,27.71,0,0,0,77.55,0a11.45,11.45,0,0,0-8,2.83,10.29,10.29,0,0,0-3.27,7.88A10.13,10.13,0,0,0,69,18.18c1.7,1.7,4.27,2.73,8.06,3.25a7.29,7.29,0,0,1,1.3.29c0,.1,0,.22,0,.37V33.46c0,6.13.66,10.66,2,13.83A17.57,17.57,0,0,0,83,51.55a16.93,16.93,0,0,0-2.62,4.13c-1.36,3-2,7.53-2,14.11V80.62a6.49,6.49,0,0,1,0,.71,10.08,10.08,0,0,1-1.37.29c-3.83.62-6.38,1.69-8,3.37a10.07,10.07,0,0,0-2.7,7.33,10.35,10.35,0,0,0,3.35,8,11.6,11.6,0,0,0,8.07,2.83,27.22,27.22,0,0,0,10.14-2,19.85,19.85,0,0,0,8-5.55A18.74,18.74,0,0,0,99.6,88c.65-2.66,1-6.8,1-13V68.71c0-5.35,2.13-5.76,3.45-6l2.5-.45.23,0a10.3,10.3,0,0,0,8.38-10.63A10.54,10.54,0,0,0,113,44.85Z"/></g></g></svg>