<svg viewBox="0 0 115.11 103.14" xmlns="http://www.w3.org/2000/svg"><g fill="#f15a24"><path d="m36.74 33.46v-7.92a25.88 25.88 0 0 1 .23-4h.3.12.41.32c9.7-1.52 10.74-8.22 10.74-11a9.83 9.83 0 0 0 -3.46-7.7 11.69 11.69 0 0 0 -7.84-2.84 27.27 27.27 0 0 0 -10.26 1.9 20 20 0 0 0 -8 5.74l-.08.1a20.32 20.32 0 0 0 -3.67 7.69c-.64 2.66-.95 6.71-.95 12.75v6.41c0 5.18-1.86 5.53-3.12 5.77a30.22 30.22 0 0 0 -3.38.8 10.75 10.75 0 0 0 -5.94 3.67 10.66 10.66 0 0 0 -2.16 6.74 10.73 10.73 0 0 0 2.49 7.35 11.13 11.13 0 0 0 6.75 3.46l.56.11c3 .49 4.75 1.66 4.75 6.22v6.29c0 6.46.41 11 1.25 13.94a17.59 17.59 0 0 0 5 8.27 21.51 21.51 0 0 0 7.6 4.45 27 27 0 0 0 9 1.52 12 12 0 0 0 8-2.7 9.89 9.89 0 0 0 3.54-7.8c0-5.86-3.86-10-10.41-10.93-.85-.12-1.13-.2-1.15-.2l-.38-.12a30.84 30.84 0 0 1 -.17-3.65v-8c0-6.57-.64-11.06-2-14.11a17 17 0 0 0 -2.63-4.13 17.57 17.57 0 0 0 2.6-4.26c1.27-3.16 1.94-7.69 1.94-13.82z"/><path d="m113 44.85a10.74 10.74 0 0 0 -5.94-3.7 28.06 28.06 0 0 0 -3.22-.65c-1.33-.27-3.25-.77-3.25-5.91v-6.41c0-6.68-.41-11.16-1.29-14.08a18 18 0 0 0 -5.1-8.23 20.83 20.83 0 0 0 -7.55-4.41 27.71 27.71 0 0 0 -9.1-1.46 11.45 11.45 0 0 0 -8 2.83 10.29 10.29 0 0 0 -3.27 7.88 10.13 10.13 0 0 0 2.72 7.47c1.7 1.7 4.27 2.73 8.06 3.25a7.29 7.29 0 0 1 1.3.29v.37 11.37c0 6.13.66 10.66 2 13.83a17.57 17.57 0 0 0 2.64 4.26 16.93 16.93 0 0 0 -2.62 4.13c-1.36 3-2 7.53-2 14.11v10.83a6.49 6.49 0 0 1 0 .71 10.08 10.08 0 0 1 -1.37.29c-3.83.62-6.38 1.69-8 3.37a10.07 10.07 0 0 0 -2.7 7.33 10.35 10.35 0 0 0 3.35 8 11.6 11.6 0 0 0 8.07 2.83 27.22 27.22 0 0 0 10.14-2 19.85 19.85 0 0 0 8-5.55 18.74 18.74 0 0 0 3.73-7.6c.65-2.66 1-6.8 1-13v-6.29c0-5.35 2.13-5.76 3.45-6l2.5-.45h.23a10.3 10.3 0 0 0 8.38-10.63 10.54 10.54 0 0 0 -2.16-6.78z"/></g></svg>