<svg viewBox="0 0 489.31 236.57" xmlns="http://www.w3.org/2000/svg" xmlns:xlink="http://www.w3.org/1999/xlink"><linearGradient id="a" gradientUnits="userSpaceOnUse" x1="243.5" x2="245.46" y1="242.43" y2="-7.73"><stop offset="0" stop-color="#ed1c24"/><stop offset="1" stop-color="#f15a24"/></linearGradient><path d="m488.87 61.8a16 16 0 0 0 -.61-9.38c-2.45-6.22-7.53-9.84-12.14-12.32-9.54-4.78-19.28-6.21-28.78-7.33a209.81 209.81 0 0 0 -28.39-1c-9.4.12-18.73.74-28 1.48-18.58 1.51-37.06 3.78-55.4 6.13s-36.69 5-55 7.85q-6.09.95-12.18 1.93c.32-.68.63-1.35 1-2 5.42-11.38 11.25-22.81 17.36-33.66a8.83 8.83 0 0 0 -14.77-9.65l-.07.09a592.21 592.21 0 0 1 -40.16 51.39q-30.28 5.28-60.47 11.22c-36.34 7.26-72.5 15-108.59 25.23-9 2.59-18.08 5.41-27.24 8.78a132.79 132.79 0 0 0 -13.71 6.14 61.45 61.45 0 0 0 -14 9.66 26.11 26.11 0 0 0 -6.86 10.38 17.76 17.76 0 0 0 3.37 16.93 26.53 26.53 0 0 0 9.33 6.9 54 54 0 0 0 8.4 3 77.46 77.46 0 0 0 15.89 2.38l14.32.35c22.42.33 44.81.37 67.12.52q-13.37 9.66-27.17 18.68c-11.63 7.6-23.46 14.9-35.51 21.77s-24.44 13.52-36.52 19.08a10.58 10.58 0 0 0 7.84 19.65h.06q52.23-18.34 104.22-37.35c17.38-6.35 34.59-12.59 52.13-19.34 4.87-2.13 9.66-3.85 15.51-9.08a22.83 22.83 0 0 0 2.24-2.46 19.15 19.15 0 0 0 2.22-3.68 15.72 15.72 0 0 0 .75-11.11 17.64 17.64 0 0 0 -4.89-7.59 26.8 26.8 0 0 0 -4.89-3.53 49 49 0 0 0 -17.05-5.31c-.49-.07-1-.12-1.49-.17a680 680 0 0 0 54.35-52.77 218.79 218.79 0 0 0 -8.92 28.6 112.89 112.89 0 0 0 -3 21.13c-.17 7.37.28 15.61 4.17 23.94s11 14.89 18.46 18.56a65.26 65.26 0 0 0 22.35 6.27c14.6 1.37 28.3-.31 41.59-2.84a240 240 0 0 0 38.58-11.27c6.23-2.46 12.37-5.13 18.45-8.18 3-1.54 6-3.22 9-5.07a55.42 55.42 0 0 0 9.2-6.82 8.27 8.27 0 0 0 -10.44-12.79l-.53.37a54.92 54.92 0 0 1 -6.82 3.88c-2.61 1.29-5.38 2.46-8.19 3.62-5.61 2.33-11.45 4.37-17.34 6.21a257.89 257.89 0 0 1 -35.83 8.78c-12 2-24.16 3-35.2 1.63a43.35 43.35 0 0 1 -14.68-3.86c-4-2.06-6.76-4.64-8.42-8.1s-2.35-8.35-2.3-13.76a91.94 91.94 0 0 1 2.12-17.05c2.42-11.69 6.46-23.47 10.89-35.13 1.76-4.56 3.64-9.1 5.57-13.62q11.76-2.32 23.55-4.57 27.09-5.1 54.28-9.51c18.14-3 36.26-5.42 54.43-7s36.37-2.27 54.07-1.1c8.78.62 17.59 2 24.88 4.91 3.6 1.45 6.62 3.39 8.08 5.7a8.14 8.14 0 0 1 1.23 4.14 14.88 14.88 0 0 1 -.91 5l-.24.7a3.39 3.39 0 0 0 5.83 3.24 18.56 18.56 0 0 0 3.87-7.82zm-319.44 95.78 3.21.16c.9.07 1.73.15 2.62.28q1 .14 1.92.33c-.32.13-.65.27-1 .39-16.85 6.54-34.28 12.95-51.52 19.31l-1.44.53q14.45-10.37 28.36-21.42c3.71.07 7.41.13 11.11.21zm-10.29-31.68q-6 5-12 9.78l-94.64-.45c-4.47-.08-9.36-.07-13.33-.33a55.63 55.63 0 0 1 -11.37-2 1.42 1.42 0 0 1 -.32-2.58c1.55-.93 3.27-1.86 5-2.75 3.62-1.79 7.52-3.57 11.52-5.11 8.09-3.15 16.57-6 25.21-8.72 17.28-5.4 35-10.07 52.74-14.62s35.59-8.85 53.47-13q17.51-4 35.06-7.8a668.27 668.27 0 0 1 -51.34 47.58z" fill="url(#a)"/></svg>