<svg id="Layer_1" data-name="Layer 1" xmlns="http://www.w3.org/2000/svg" viewBox="0 0 18 18"><defs><style>.cls-1{fill:#709955;}.cls-2{fill:#8cb571;}.cls-3{fill:#57843d;}</style></defs><title>axh</title><path class="cls-1" d="M13,2.31S6.94,2.46,6.75,6,10.3,8.83,10.3,8.83,15,7.87,13,2.31Z"/><path class="cls-2" d="M7.79.8s5.06,3.37,3.33,6.47-4.52.49-4.52.49S3.14,4.43,7.79.8Z"/><path class="cls-3" d="M10,2.81a11.76,11.76,0,0,1,2-.41,3.66,3.66,0,0,0-1.74-1.11,3.83,3.83,0,0,0-1.9,0A12.43,12.43,0,0,1,10,2.81Z"/><path class="cls-1" d="M7.24,9s-5.79,1.83-5,5.29S6.45,16,6.45,16,10.7,13.75,7.24,9Z"/><path class="cls-2" d="M1.8,9s5.79,1.83,5,5.29S2.6,16,2.6,16-1.66,13.75,1.8,9Z"/><path class="cls-3" d="M4.52,10.26a12.38,12.38,0,0,1,1.81-.95,3.67,3.67,0,0,0-2-.58,3.73,3.73,0,0,0-1.84.5A12.81,12.81,0,0,1,4.52,10.26Z"/><path class="cls-1" d="M14.43,8.15S9.75,12,11.79,14.93s4.54,0,4.54,0S19.43,11.29,14.43,8.15Z"/><path class="cls-2" d="M9.39,10.2s6.06-.48,6.61,3-3.24,3.18-3.24,3.18S8,15.93,9.39,10.2Z"/><path class="cls-3" d="M12.4,10.38a11.86,11.86,0,0,1,1.32-1.56,3.72,3.72,0,0,0-2.05.2,3.81,3.81,0,0,0-1.51,1.16A12.44,12.44,0,0,1,12.4,10.38Z"/></svg>