<svg id="Layer_1" data-name="Layer 1" xmlns="http://www.w3.org/2000/svg" viewBox="0 0 18 18"><defs><style>.cls-1{fill:#f4c498;}.cls-2{fill:#edb588;}.cls-3{fill:#d8ab87;}.cls-4{fill:#ffd2a6;}.cls-5{fill:#f7c292;}.cls-6{fill:#ffe1c5;}</style></defs><title>axh</title><path class="cls-1" d="M0,9.43S.83,3.52,6.3,3.54c6.57,0,7.48,1.69,9.62,2.33,1.41.43,1.32,1.82.73,2.05S8.87,14.31,0,9.43Z"/><path class="cls-2" d="M16.75,7c-.58.2-7.64,5.68-16.44,1.28A8.58,8.58,0,0,0,0,9.43c8.83,4.88,16-1.28,16.61-1.51A.86.86,0,0,0,17,6.84.52.52,0,0,1,16.75,7Z"/><path class="cls-3" d="M8,7.44a.26.26,0,0,1-.22-.13A5.48,5.48,0,0,0,4.48,4.56a.24.24,0,0,1-.19-.29.24.24,0,0,1,.29-.2,5.86,5.86,0,0,1,3.59,3,.26.26,0,0,1-.1.34Z"/><path class="cls-3" d="M10.3,7.28a.27.27,0,0,1-.22-.13C8.78,4.83,7.36,4.46,7.34,4.46A.25.25,0,0,1,7.46,4c.06,0,1.64.41,3.06,2.94a.24.24,0,0,1-.1.34A.24.24,0,0,1,10.3,7.28Z"/><path class="cls-3" d="M12.44,7.51a.26.26,0,0,1-.23-.16,5.05,5.05,0,0,0-1.92-2.59.25.25,0,0,1-.12-.34.25.25,0,0,1,.33-.11,5.34,5.34,0,0,1,2.17,2.85.25.25,0,0,1-.13.33Z"/><path class="cls-4" d="M.3,14S.47,7.67,6.24,7.09c6.94-.71,8.08.93,10.41,1.37,1.53.3,1.6,1.77,1,2.08S10.16,18.15.3,14Z"/><path class="cls-5" d="M17.65,9.6c-.59.28-7.42,6.85-17.19,3.2A8.71,8.71,0,0,0,.3,14c9.86,4.15,16.76-3.15,17.35-3.46a.93.93,0,0,0,.24-1.18A.62.62,0,0,1,17.65,9.6Z"/><path class="cls-6" d="M13.14,8.54h-.09c-2.33-.81-7.22,0-7.27,0a.24.24,0,0,1-.29-.21A.26.26,0,0,1,5.7,8c.2,0,5.06-.83,7.52,0a.25.25,0,0,1,.15.32A.23.23,0,0,1,13.14,8.54Z"/><path class="cls-6" d="M8.61,12.92a.25.25,0,0,1-.24-.21.25.25,0,0,1,.21-.29s4.15-.63,6.12-2.47a.25.25,0,0,1,.34.36C13,12.26,8.83,12.89,8.65,12.92Z"/><path class="cls-3" d="M8.39,11a.26.26,0,0,1-.21-.11A5.78,5.78,0,0,0,4.44,8.35a.25.25,0,1,1,0-.5A6.2,6.2,0,0,1,8.59,10.6a.25.25,0,0,1-.06.35A.24.24,0,0,1,8.39,11Z"/><path class="cls-3" d="M10.85,10.56a.23.23,0,0,1-.2-.1C9,8.15,7.46,7.92,7.44,7.92a.25.25,0,0,1-.21-.28.24.24,0,0,1,.27-.22c.08,0,1.78.25,3.56,2.75a.25.25,0,0,1-.06.35A.28.28,0,0,1,10.85,10.56Z"/><path class="cls-3" d="M13.14,10.56a.24.24,0,0,1-.22-.12A5.4,5.4,0,0,0,10.58,7.9a.26.26,0,0,1-.15-.32.27.27,0,0,1,.32-.15c.06,0,1.34.49,2.6,2.76a.25.25,0,0,1-.09.34A.27.27,0,0,1,13.14,10.56Z"/></svg>