<svg id="Layer_1" data-name="Layer 1" xmlns="http://www.w3.org/2000/svg" viewBox="0 0 18 18"><title>axh</title><path d="M17.12,6.41a2.32,2.32,0,0,0,.36-2.85,2,2,0,0,0-1.33-1A1.69,1.69,0,0,0,15,2.86c-.83-1.43-3.89-.75-4.22,1a1.59,1.59,0,0,0-1.71.91A2.47,2.47,0,0,0,9,6.8a1.27,1.27,0,0,0-.84,1.35,2.86,2.86,0,0,0,.43,1.33,3.37,3.37,0,0,0-.82.19,3.33,3.33,0,0,0-1.11.7L5.93,10a2.07,2.07,0,0,0-.07-2.13,1.57,1.57,0,0,0-2.1-.67,1.1,1.1,0,0,0-.23.2,1.64,1.64,0,0,0-.2-.26A1.58,1.58,0,0,0,2,6.68a1.83,1.83,0,0,0-1.53,2A2,2,0,0,0,.89,9.69a1.56,1.56,0,0,0-.59.47,1.55,1.55,0,0,0-.2,1.31,1.77,1.77,0,0,0,1,1.12,1.27,1.27,0,0,0,.14.92,2.1,2.1,0,0,0,1.78,1,2.31,2.31,0,0,0,2.12-2l.45.18a3.26,3.26,0,0,0,.22,1.37,3.44,3.44,0,0,0,2.59,2.16l6,1.07a2,2,0,0,0,.35,0,1.92,1.92,0,0,0,1.17-3.41l-.59-.47a2.45,2.45,0,0,0,1.46-1.11,1.9,1.9,0,0,0,0-2A2.79,2.79,0,0,0,18,8.22,1.84,1.84,0,0,0,17.12,6.41ZM4.3,8l0,0,0,0Zm.2,3.22a.5.5,0,0,0-.56.73.71.71,0,0,1,0,1,1.76,1.76,0,0,1-.4.37,1.21,1.21,0,0,1-.4.18,1.07,1.07,0,0,1-1-.37A.5.5,0,0,1,2,12.82s0-.07,0-.08,0,0,0,0a1.37,1.37,0,0,1,.21-.18.5.5,0,0,0-.51-.86l-.05,0-.07,0h-.1c.13,0,0,0-.08,0h0l-.07,0h0l-.06-.06-.07-.08h0l-.1-.17h0l0-.1s0-.13,0-.14v-.12s0-.06,0-.11l.06-.12h0l.06-.06.06,0,.09,0,.09,0,.15,0,.29,0a.5.5,0,0,0,.25-.93,2.69,2.69,0,0,1-.48-.47,1.17,1.17,0,0,1-.22-.43s0-.05,0-.07,0-.07,0-.08V8.37h0v0l0-.1,0-.06a.17.17,0,0,0,0-.05L1.56,8V8h0l.06-.07.09-.08h0l.19-.1h0l.13,0,.09,0h.15l.18,0c-.13,0,.06,0,.11.08-.12-.08.09.11.09.09l.06.1.06.11s0,.1,0,.12a1.17,1.17,0,0,1,0,.2A1.52,1.52,0,0,1,3,8.78a.51.51,0,0,0,.44.49.5.5,0,0,0,.55-.36A3.39,3.39,0,0,1,4,8.47l.06-.16c0-.06,0,0,0-.11a.41.41,0,0,0,0-.09l.05,0L4.29,8l.06,0h0s.09,0,0,0h.12L4.6,8h0l.1.05,0,0,.17.17,0,0,.08.13.06.11v0h0a1.34,1.34,0,0,1,.07.27.15.15,0,0,1,0,.06v.23a.74.74,0,0,1,0,.14,1.29,1.29,0,0,1-.28.51.51.51,0,0,0,.1.79l1,.61a3.47,3.47,0,0,0-.26.55Zm11,4.58a.87.87,0,0,1-1,.52l-5.33-1a1.49,1.49,0,0,1,0-.21,4.34,4.34,0,0,1,0-.51,1.94,1.94,0,0,1,0-.24h0l0-.13a3.89,3.89,0,0,1,.12-.49.5.5,0,1,0-1-.27,4.51,4.51,0,0,0-.2,1.63,2.4,2.4,0,0,1,0-4.52,2.45,2.45,0,0,1,2.36.36l2,1.54a2.26,2.26,0,0,0-.75,1.19.5.5,0,0,0,.35.62.51.51,0,0,0,.38-.05.5.5,0,0,0,.23-.3l.06-.19a2.75,2.75,0,0,1,.17-.29,1.88,1.88,0,0,1,.25-.24l.13-.09,2,1.55A.88.88,0,0,1,15.48,15.8Zm.21-6.14a.51.51,0,0,0-.12.92.88.88,0,0,1,.22,1.34,1.43,1.43,0,0,1-1.57.59.52.52,0,0,0-.21,0l-1.54-1.22.3-.66.07,0a3.42,3.42,0,0,1,1.84-.52.5.5,0,0,0,0-1,4.32,4.32,0,0,0-1.34.21c.15-.37.3-.74.43-1.12a.57.57,0,0,0,.13-.08L14.09,8l.09,0,.05,0h0A4.47,4.47,0,0,1,15,7.68a.5.5,0,0,0,.35-.61.52.52,0,0,0-.62-.35,5.18,5.18,0,0,0-.56.17c.12-.38.24-.75.34-1.14a.5.5,0,0,0-1-.26c-.12.42-.25.84-.38,1.25a4.93,4.93,0,0,0-1-.93.5.5,0,0,0-.68.18.52.52,0,0,0,.17.69s.13.09.05,0l.09.08a1.54,1.54,0,0,1,.19.17,3.81,3.81,0,0,1,.33.36h0l0,0,.07.09c0,.07.09.14.13.22a2.85,2.85,0,0,1,.16.3l-.36.91A3.09,3.09,0,0,0,11.05,8a.5.5,0,1,0-.27,1,1.38,1.38,0,0,1,.45.2,1.83,1.83,0,0,1,.39.31A2,2,0,0,1,12,10c-.1.23-.2.46-.31.68l-.58-.46a3.51,3.51,0,0,0-.84-.48.4.4,0,0,0-.2-.18,1.69,1.69,0,0,1-.87-1.19c-.09-.42,0-.72.49-.66a.5.5,0,0,0,.48-.83C9.51,6.13,9.81,4.4,11,5a.51.51,0,0,0,.74-.56c-.31-1.26,2.5-2,2.44-.63,0,.41.58.7.85.36s.53-.62.92-.59a1,1,0,0,1,.7.56,1.44,1.44,0,0,1-.83,2c-.49.24-.2.9.25.94A.93.93,0,0,1,17,8.24,1.72,1.72,0,0,1,15.69,9.66Z"/><path d="M3.48,6l1.4-.68a2.77,2.77,0,0,1,.22.37v0h0l.06.15.11.3a5.65,5.65,0,0,0,.28.62.82.82,0,0,0,.77.37,1.71,1.71,0,0,0,1.2-.5A1.08,1.08,0,0,0,7.91,6a1.7,1.7,0,0,0-.32-.73,10,10,0,0,0-.65-.91l1.6-.79a.51.51,0,0,0,.18-.69A4.17,4.17,0,0,0,7.48,1.58a3.37,3.37,0,0,0-3.35-.14A2.94,2.94,0,0,0,2.37,4.13a3.93,3.93,0,0,0,.43,1.7A.51.51,0,0,0,3.48,6ZM6.07,4.78,6.25,5l.3.45A5.55,5.55,0,0,1,6.84,6h0l0,0,0,0,0,0-.1.06h0l0,0-.1,0-.08,0h0v0a1.17,1.17,0,0,1-.05-.11h0l-.09-.24a5.57,5.57,0,0,0-.42-.89l.27-.13S6.1,4.83,6.07,4.78ZM3.38,3.94a.57.57,0,0,1,0-.13s0-.06,0-.08a2.29,2.29,0,0,1,.08-.28.74.74,0,0,1,.09-.21A2.32,2.32,0,0,1,4.63,2.3a3.12,3.12,0,0,1,.77-.24,3.84,3.84,0,0,1,.58,0,2.22,2.22,0,0,1,1.07.45l.08.06.07.06.19.17.13.14c-1.34.66-2.67,1.32-4,2a2.41,2.41,0,0,1-.08-.25l0-.21a.18.18,0,0,1,0-.06.86.86,0,0,1,0-.16A1.22,1.22,0,0,1,3.38,3.94Z"/><path d="M6.62,6.12h0S6.59,6.14,6.62,6.12Z"/></svg>