<svg id="Layer_1" data-name="Layer 1" xmlns="http://www.w3.org/2000/svg" viewBox="0 0 18 18"><title>axh</title><path d="M13.48,2.7A4.81,4.81,0,0,0,14,.59a.5.5,0,0,0-.5-.5A5,5,0,0,0,9.09,2.77l-.51-.13a11.77,11.77,0,0,0-1-1.79.5.5,0,0,0-.7-.1.48.48,0,0,0-.1.69s.26.37.58.93a6.25,6.25,0,0,0-4.11.94A6.94,6.94,0,0,0,.15,7.89a7.14,7.14,0,0,0,1.18,5.48L3.54,16.5A3.39,3.39,0,0,0,7.9,17.58a2.32,2.32,0,0,1,2.2,0,3.39,3.39,0,0,0,4.37-1.08l2.21-3.13a7.14,7.14,0,0,0,1.18-5.48A6.8,6.8,0,0,0,13.48,2.7Zm-.55-1.57A4,4,0,0,1,9.54,4.52,4,4,0,0,1,12.93,1.13Zm2.94,11.66-2.22,3.13a2.38,2.38,0,0,1-3.08.77,3.34,3.34,0,0,0-3.13,0,2.38,2.38,0,0,1-3.08-.77L2.14,12.79a6.23,6.23,0,0,1-1-4.72A5.92,5.92,0,0,1,3.75,4.15a5.27,5.27,0,0,1,4.11-.67A6.94,6.94,0,0,1,8.44,6a3.1,3.1,0,0,1-1-.35.49.49,0,0,0-.68.17.51.51,0,0,0,.17.69A4.11,4.11,0,0,0,11,6.5a.51.51,0,0,0,.17-.69.49.49,0,0,0-.68-.17A3.15,3.15,0,0,1,9.44,6a3.73,3.73,0,0,0,0-.48A4.94,4.94,0,0,0,13,3.57a5.8,5.8,0,0,1,3.93,4.5A6.23,6.23,0,0,1,15.87,12.79Z"/></svg>