<svg id="Layer_1" data-name="Layer 1" xmlns="http://www.w3.org/2000/svg" viewBox="0 0 18 18"><title>axh</title><path d="M15.83,5.15l-4.41-.64-2-4A.51.51,0,0,0,9,.24a.5.5,0,0,0-.45.28l-2,4-4.4.64a.48.48,0,0,0-.4.34A.5.5,0,0,0,1.91,6L5.1,9.1l-.75,4.39a.49.49,0,0,0,.2.49.5.5,0,0,0,.29.09A.46.46,0,0,0,5.07,14L9,11.94,12.94,14a.5.5,0,0,0,.73-.52L12.92,9.1,16.1,6a.49.49,0,0,0,.13-.51A.5.5,0,0,0,15.83,5.15ZM12,8.57a.49.49,0,0,0-.14.44l.62,3.65L9.24,10.94a.47.47,0,0,0-.46,0L5.5,12.66,6.13,9A.49.49,0,0,0,6,8.57L3.34,6,7,5.46a.49.49,0,0,0,.37-.27L9,1.87l1.63,3.32a.53.53,0,0,0,.38.27L14.68,6Z"/><path d="M12.8,15.05a.5.5,0,0,0-.89.44l.61,1.85a.61.61,0,0,0,.09.18.77.77,0,0,0,1.28-.86Z"/><path d="M9,13.11a.5.5,0,0,0-.52.48L8.3,16.88a.49.49,0,0,0,0,.12.76.76,0,0,0,1.52-.17l-.37-3.28A.5.5,0,0,0,9,13.11Z"/><path d="M5.1,15.06l-1,1.62a.66.66,0,0,0-.09.19.77.77,0,0,0,1.48.45L6,15.48a.49.49,0,0,0-.21-.57A.51.51,0,0,0,5.1,15.06Z"/></svg>