<svg id="Layer_1" data-name="Layer 1" xmlns="http://www.w3.org/2000/svg" viewBox="0 0 18 18"><defs><style>.cls-1{fill:#7a5332;}.cls-2{fill:#5e412a;}.cls-3{fill:#966b4b;}.cls-4{fill:#ba3535;}.cls-5{fill:#c1c1c1;}</style></defs><title>axh</title><rect class="cls-1" x="2.43" width="6.83" height="6.83" transform="translate(9.25 -2.43) rotate(90)"/><polygon class="cls-2" points="9.26 0 7.55 1.71 7.55 5.12 4.13 5.12 2.43 6.83 9.26 6.83 9.26 0"/><polygon class="cls-3" points="2.43 0 4.13 1.71 7.55 1.71 9.26 0 2.43 0"/><rect class="cls-1" x="9.25" width="6.83" height="6.83" transform="translate(16.08 -9.25) rotate(90)"/><polygon class="cls-2" points="16.08 0 14.38 1.71 14.38 5.12 10.96 5.12 9.26 6.83 16.08 6.83 16.08 0"/><polygon class="cls-3" points="9.26 0 10.96 1.71 14.38 1.71 16.08 0 9.26 0"/><rect class="cls-1" x="2.43" y="6.83" width="6.83" height="6.83" transform="translate(16.08 4.4) rotate(90)"/><polygon class="cls-2" points="9.26 6.83 7.55 8.54 7.55 11.95 4.13 11.95 2.43 13.66 9.26 13.66 9.26 6.83"/><polygon class="cls-3" points="2.43 6.83 4.13 8.54 7.55 8.54 9.26 6.83 2.43 6.83"/><rect class="cls-1" x="9.25" y="6.83" width="6.83" height="6.83" transform="translate(22.91 -2.43) rotate(90)"/><polygon class="cls-2" points="16.08 6.83 14.38 8.54 14.38 11.95 10.96 11.95 9.26 13.66 16.08 13.66 16.08 6.83"/><polygon class="cls-3" points="9.26 6.83 10.96 8.54 14.38 8.54 16.08 6.83 9.26 6.83"/><path class="cls-4" d="M.73,17.91v-6.7l1.61.22a4,4,0,0,1,2.28,1.1h0a4,4,0,0,0,3.61,1.05l1.69-.33a4.08,4.08,0,0,1,2.74.41h0a4.06,4.06,0,0,0,2.21.49L17.27,14v3.91Z"/><path class="cls-5" d="M2.34,11.43a4,4,0,0,1,2.28,1.1,4,4,0,0,0,3.61,1.05l1.69-.33a4.08,4.08,0,0,1,2.74.41h0a4.06,4.06,0,0,0,2.21.49l1.9-.13V13a6.54,6.54,0,0,1-2,0c-1.26-.16-1.17-.77-3.56-1.16s-3.72,1.71-6-.59-3.9-1.75-3.9-1.75V11.3Z"/></svg>