<svg id="Layer_1" data-name="Layer 1" xmlns="http://www.w3.org/2000/svg" viewBox="0 0 18 18"><defs><style>.cls-1{fill:#c6c6c6;}.cls-2{fill:#e6e6e6;}.cls-3{fill:#e2e2e2;}.cls-4{fill:#d1d1d1;}.cls-5{fill:#eaeaea;}.cls-6{fill:#3dabef;}.cls-7{fill:#2b9dd6;}.cls-8{fill:#fff;}.cls-9{fill:#ededed;}</style></defs><title>axh</title><polygon class="cls-1" points="8.21 18 3.82 16.12 3.82 5.79 8.21 7.35 8.21 18"/><polygon class="cls-2" points="14.16 16.43 8.21 18 8.21 7.35 14.16 5.79 14.16 16.43"/><polygon class="cls-3" points="11.96 1.4 6.02 2.66 6.02 1.4 11.96 0.15 11.96 1.4"/><polygon class="cls-4" points="8.21 7.35 3.82 5.79 6.02 2.66 6.02 2.66 8.21 7.35"/><polygon class="cls-5" points="14.16 5.79 8.21 7.35 6.02 2.66 11.96 1.4 14.16 5.79"/><polygon class="cls-6" points="14.16 11.74 8.21 16.43 8.21 11.74 14.16 6.73 14.16 11.74"/><polygon class="cls-7" points="3.82 14.55 8.21 16.43 8.21 11.74 3.82 9.86 3.82 14.55"/><path class="cls-8" d="M10.78,5.44h0c-.69.18-.93-.45-1-.87h0c-.11-.41-.22-1.07.48-1.26h0c.69-.18.92.45,1,.87h0C11.37,4.59,11.47,5.25,10.78,5.44Z"/><polygon class="cls-9" points="10.71 1.67 11.34 1.54 11.34 0.28 10.71 0.41 10.71 1.67"/><polygon class="cls-9" points="9.46 1.93 10.09 1.8 10.09 0.55 9.46 0.68 9.46 1.93"/><polygon class="cls-9" points="8.21 2.19 8.83 2.06 8.83 0.81 8.21 0.94 8.21 2.19"/><polygon class="cls-9" points="6.96 2.46 7.58 2.33 7.58 1.07 6.96 1.21 6.96 2.46"/></svg>