<svg id="Layer_1" data-name="Layer 1" xmlns="http://www.w3.org/2000/svg" viewBox="0 0 18 18"><defs><style>.cls-1{fill:#ba7547;}.cls-2{fill:#dda450;}.cls-3{fill:#a36133;}.cls-4{fill:#8ebf5a;}.cls-5{fill:#9ad367;}.cls-6{fill:#c9ffd2;}.cls-7{fill:#4d682e;}</style></defs><title>axh</title><path class="cls-1" d="M7.15,1.23a1,1,0,0,0-1-1,1,1,0,0,0-1,1v0A1.21,1.21,0,0,1,4.4,2.35C2.15,3.34.53,6.2.53,9.57c0,4.19,2.51,6.3,5.61,6.3s5.61-2.11,5.61-6.3c0-3.37-1.63-6.23-3.88-7.22a1.22,1.22,0,0,1-.72-1.12Z"/><path class="cls-2" d="M3.94,3.82a5,5,0,0,1,1-.57,1.24,1.24,0,0,0,.73-1.13v0a1,1,0,0,1,1-1,1,1,0,0,1,.47.13,1,1,0,0,0-1-1,1,1,0,0,0-1,1v0A1.21,1.21,0,0,1,4.4,2.35C2.15,3.34.53,6.2.53,9.57a7.07,7.07,0,0,0,1.13,4.11A7.8,7.8,0,0,1,1,10.46a8.28,8.28,0,0,1,2.9-6.64"/><path class="cls-3" d="M10.86,5.48A6.87,6.87,0,0,0,5.07,11a5,5,0,0,0,0,1.73,2.15,2.15,0,0,1-1.33,2.52l-.1.06a5.7,5.7,0,0,0,2.49.53c3.09,0,5.61-2.11,5.61-6.3a9.56,9.56,0,0,0-.89-4.09Z"/><circle class="cls-4" cx="11.83" cy="12.27" r="5.51"/><circle class="cls-5" cx="11.83" cy="12.27" r="4.24"/><circle class="cls-6" cx="11.83" cy="12.27" r="2.14"/><path class="cls-7" d="M11.83,10.42a.29.29,0,0,1-.29-.29v-.3a.29.29,0,1,1,.57,0v.3A.29.29,0,0,1,11.83,10.42Z"/><path class="cls-7" d="M10.51,10.56l-.15-.26a.28.28,0,0,1,.49-.29l.15.27a.28.28,0,1,1-.49.28Z"/><path class="cls-7" d="M9.83,11.45l-.26-.15a.29.29,0,0,1-.11-.39.29.29,0,0,1,.39-.11l.27.16a.28.28,0,1,1-.29.49Z"/><path class="cls-7" d="M9.69,12.56H9.38a.29.29,0,0,1,0-.57h.31a.29.29,0,0,1,0,.57Z"/><path class="cls-7" d="M9.46,13.64a.28.28,0,0,1,.11-.39l.26-.15a.28.28,0,0,1,.39.1.29.29,0,0,1-.1.39l-.27.15A.29.29,0,0,1,9.46,13.64Z"/><path class="cls-7" d="M10.46,14.63a.28.28,0,0,1-.1-.38l.15-.27a.28.28,0,0,1,.49.29l-.15.26A.28.28,0,0,1,10.46,14.63Z"/><path class="cls-7" d="M11.83,15a.29.29,0,0,1-.29-.28v-.31a.29.29,0,0,1,.57,0v.31A.29.29,0,0,1,11.83,15Z"/><path class="cls-7" d="M12.8,14.53l-.15-.26a.28.28,0,1,1,.49-.29l.15.27a.28.28,0,0,1-.1.38A.28.28,0,0,1,12.8,14.53Z"/><path class="cls-7" d="M13.8,13.74l-.27-.15a.29.29,0,0,1-.1-.39.28.28,0,0,1,.39-.1l.26.15a.28.28,0,0,1,.11.39A.29.29,0,0,1,13.8,13.74Z"/><path class="cls-7" d="M14.27,12.56H14A.29.29,0,0,1,14,12h.31a.29.29,0,0,1,0,.57Z"/><path class="cls-7" d="M13.43,11.35a.29.29,0,0,1,.1-.39l.27-.16a.29.29,0,0,1,.39.11.29.29,0,0,1-.11.39l-.26.15A.29.29,0,0,1,13.43,11.35Z"/><path class="cls-7" d="M12.75,10.67a.29.29,0,0,1-.1-.39L12.8,10a.28.28,0,1,1,.49.29l-.15.26A.29.29,0,0,1,12.75,10.67Z"/><path class="cls-3" d="M4.5,13.72a.24.24,0,0,0-.29-.3.61.61,0,0,0-.36.23c-.17.21-.38.86,0,.9S4.49,14,4.5,13.72Z"/></svg>