<svg id="Layer_1" data-name="Layer 1" xmlns="http://www.w3.org/2000/svg" viewBox="0 0 18 18"><defs><style>.cls-1{fill:#7190a5;}.cls-2{fill:#aabece;}.cls-3{fill:#394d5c;}</style></defs><title>axh</title><path class="cls-1" d="M10,3.77a6.73,6.73,0,0,1,3.45.33L13,8.46Z"/><path class="cls-2" d="M9.1,8.86l-.29,1.82,3.53,2.67,0-1.63Z"/><path class="cls-2" d="M7.2,6.21,8.34,7.8,6.75,8.94A2,2,0,0,1,7.2,6.21Z"/><path class="cls-1" d="M5.36.31s2.8,0,5.66,4c3.43,4.77,3.29,8.48,3.29,8.48s-2.23.8-7.18-6.07A9.18,9.18,0,0,1,5.36.31Z"/><path class="cls-2" d="M11,4.26C8.16.3,5.36.31,5.36.31l9,12.43S14.45,9,11,4.26Z"/><path class="cls-1" d="M8.35,5l1.44-.23.1.64-1.43.24Z"/><path class="cls-1" d="M9.11,6.08l1.44-.23.11.64-1.44.23Z"/><path class="cls-1" d="M9.92,7.13l1.17,0,0,.65-1.17,0Z"/><path class="cls-3" d="M7.62,3a.65.65,0,0,1-.91-.15A.65.65,0,0,1,6.86,2,.65.65,0,0,1,7.62,3Z"/><path class="cls-2" d="M15.56,16.16c-.15.12-.35.08-.6-.28a6.47,6.47,0,0,1-.65-3.14,6.44,6.44,0,0,1,2.77,1.62c.54.7-.14.8-.63.79a3,3,0,0,1-.43,0c0,.14-.06.28-.1.41A1.29,1.29,0,0,1,15.56,16.16Z"/><path class="cls-1" d="M6.36,5.11a7.76,7.76,0,0,1,3.93-.47l.52,5Z"/><path class="cls-2" d="M6.61,11l.11,2.1,4.59,2.13L11,13.4Z"/><path class="cls-2" d="M3.85,8.5,5.51,10,4,11.65A2.24,2.24,0,0,1,3.85,8.5Z"/><path class="cls-1" d="M.37,2.35S3.5,1.67,7.64,5.4c5,4.5,5.72,8.67,5.72,8.67S11.06,15.5,3.88,9A10.55,10.55,0,0,1,.37,2.35Z"/><path class="cls-2" d="M7.64,5.4C3.5,1.67.37,2.35.37,2.35l13,11.72S12.62,9.9,7.64,5.4Z"/><path class="cls-1" d="M4.85,6.89l1.55-.6L6.67,7l-1.55.61Z"/><path class="cls-1" d="M6,7.89,7.5,7.28l.28.7-1.55.6Z"/><path class="cls-1" d="M7.1,8.87l1.3-.33.19.72-1.3.33Z"/><path class="cls-3" d="M3.55,4.84a.74.74,0,0,1-1,.06.73.73,0,0,1,0-1.05.74.74,0,1,1,1.1,1Z"/><path class="cls-2" d="M15.58,17.59c-.15.16-.38.17-.73-.18a7.36,7.36,0,0,1-1.49-3.34,7.44,7.44,0,0,1,3.48,1.13c.77.66,0,.93-.52,1a4,4,0,0,1-.48.07,3.85,3.85,0,0,1,0,.48A1.54,1.54,0,0,1,15.58,17.59Z"/></svg>