<svg id="Layer_1" data-name="Layer 1" xmlns="http://www.w3.org/2000/svg" viewBox="0 0 18 18"><defs><style>.cls-1{fill:#a36133;}.cls-2{fill:#ba7547;}.cls-3{fill:#f9ea80;}.cls-4{fill:#efe7d0;}.cls-5{fill:#fff5bb;}.cls-6{fill:#d2d5d7;}.cls-7{fill:#ed8f20;}</style></defs><title>axh</title><polygon class="cls-1" points="3.18 16.84 0.78 15.81 0.78 0 3.18 0 3.18 16.84"/><path class="cls-2" d="M5.78,11.73v0c0-.81,2.73-1.47,6.11-1.47.35,0,.7,0,1,0l.92-3.45V0H3.19V16.84H8.54A6.1,6.1,0,0,1,5.78,11.73Z"/><path class="cls-3" d="M7.66,8H6.4A1.84,1.84,0,0,1,4.56,6.15V4.89H5.82A1.84,1.84,0,0,1,7.66,6.73Z"/><path class="cls-3" d="M9,8h1.26a1.83,1.83,0,0,0,1.83-1.83V4.89H10.87A1.84,1.84,0,0,0,9,6.73Z"/><path class="cls-3" d="M8.34,6.44l.89-.89a1.83,1.83,0,0,0,0-2.6l-.89-.89L7.45,3a1.85,1.85,0,0,0,0,2.6Z"/><path class="cls-4" d="M14.27,10.33,15.56,5.5a.35.35,0,0,0-.34-.35h-.69a.35.35,0,0,0-.34.35l-1.27,4.74c-.33,0-.68,0-1,0-3.38,0-6.11.66-6.11,1.47v0a6.11,6.11,0,0,0,12.22,0v0C18,11.08,16.46,10.56,14.27,10.33Z"/><path class="cls-5" d="M14.27,10.33,15.56,5.5a.35.35,0,0,0-.34-.35h-.69a.35.35,0,0,0-.34.35l-1.27,4.74c-.33,0-.68,0-1,0-3.38,0-6.11.66-6.11,1.47s2.73,1.48,6.11,1.48S18,12.51,18,11.69C18,11.08,16.46,10.56,14.27,10.33Z"/><path class="cls-6" d="M14.27,10.33,15.56,5.5a.35.35,0,0,0-.34-.35h-.69a.35.35,0,0,0-.34.35l-1.27,4.74-.22.86,1.33.24Z"/><path class="cls-7" d="M10.41,12H9.72A.35.35,0,1,0,9,12H8.34a1,1,0,0,1,2.07,0Z"/><path class="cls-7" d="M13.16,12.37h-.69a.35.35,0,0,0-.35-.34.34.34,0,0,0-.34.34h-.69a1,1,0,0,1,2.07,0Z"/></svg>