<svg id="Layer_1" data-name="Layer 1" xmlns="http://www.w3.org/2000/svg" viewBox="0 0 18 18"><defs><style>.cls-1{fill:#d6d6d6;}.cls-2{fill:#93d8e4;}.cls-3{fill:#7ad0df;}.cls-4{fill:#c6c1c8;}.cls-5{fill:#fff9e2;}.cls-6{fill:#fbf4c6;}.cls-7{fill:#c8ea73;}</style></defs><title>axh</title><path class="cls-1" d="M13.67,15.43c-.27.28-9,.28-9.3,0h0l.07,1.21a.24.24,0,0,0,.07.17C4.78,17.09,5.91,18,9,18s4.24-.91,4.51-1.19a.24.24,0,0,0,.07-.17l.08-1.21Z"/><path class="cls-2" d="M14.26,10.29,8.88,9.06l-5.1,1.23.51,5a.3.3,0,0,0,.08.17c.28.28,1.44,1.23,4.65,1.23s4.38-.95,4.65-1.23a.25.25,0,0,0,.08-.17Z"/><path class="cls-3" d="M12.47,10.29l-.3,1.41A4.33,4.33,0,0,1,8.1,15.77l-.82,0a11,11,0,0,1-2.89-.34c.32.31,1.5,1.21,4.63,1.21s4.38-.95,4.65-1.23a.25.25,0,0,0,.08-.17l.51-5-1.35-.42Z"/><path class="cls-1" d="M14.41,1.34H3.64a.58.58,0,0,0-.58.58V9.71a.58.58,0,0,0,.58.58H14.41A.58.58,0,0,0,15,9.71V1.92a.58.58,0,0,0-.58-.58Z"/><path class="cls-4" d="M7.38,5.91,5.74,3.15A1.06,1.06,0,0,0,4.85,4.2V6.74c0-.79,2.53-.83,2.53-.83Z"/><path class="cls-4" d="M12.12,3.13H7.41L7.32,5.66c.09,0,5.88,0,5.88.73V4.2A1.07,1.07,0,0,0,12.12,3.13Z"/><path class="cls-5" d="M11.81,5h-.08c-.9,0-.9.35-1.81.35S9,5,8.12,5h-.3l-1.41.34H6.29A1.44,1.44,0,0,0,4.85,6.74v.69A1.07,1.07,0,0,0,5.92,8.5h6.2A1.07,1.07,0,0,0,13.2,7.43v-1A1.43,1.43,0,0,0,11.81,5Z"/><path class="cls-6" d="M11.81,5h-.08a2.18,2.18,0,0,0-.38,0,1.41,1.41,0,0,1,.11.54v1a1.07,1.07,0,0,1-1.07,1.07H4.87a1.06,1.06,0,0,0,1,.87h6.2A1.07,1.07,0,0,0,13.2,7.43v-1A1.43,1.43,0,0,0,11.81,5Z"/><path class="cls-7" d="M5.75,0a.9.9,0,0,0-.63,1.13L6.88,6.83a3.42,3.42,0,0,1,1.24-.29h.06L6.86.7A.9.9,0,0,0,5.75,0Z"/><path class="cls-6" d="M9.92,7.22a2.51,2.51,0,0,1-1-.2A2,2,0,0,0,7.34,7a2.53,2.53,0,0,1-1,.2A.32.32,0,0,1,6,6.9a.32.32,0,0,1,.32-.33,1.77,1.77,0,0,0,.79-.16,2.47,2.47,0,0,1,1-.2,2.51,2.51,0,0,1,1,.2,1.72,1.72,0,0,0,.78.16.33.33,0,0,1,.33.33.32.32,0,0,1-.33.32Z"/></svg>