<svg id="Layer_1" data-name="Layer 1" xmlns="http://www.w3.org/2000/svg" viewBox="0 0 18 18"><defs><style>.cls-1{fill:#ebe1dc;}.cls-2{fill:#efe4e4;}.cls-3{fill:#dcd2cd;}.cls-4{fill:#c8beb9;}.cls-5{fill:#b4aaaa;}</style></defs><title>axh</title><path class="cls-1" d="M7.33,16.31a3,3,0,0,1-.55-.52h0a2.87,2.87,0,0,1-.46-.69l-.74-1.55a3.35,3.35,0,0,0-.66-.93L4.26,12A.25.25,0,0,0,4,11.89a.24.24,0,0,0-.18.18l-.81,3a1.34,1.34,0,0,0,1.29,1.69H7.17a.28.28,0,0,0,.25-.18A.26.26,0,0,0,7.33,16.31Z"/><path class="cls-1" d="M14.92,15.09l-.81-3a.24.24,0,0,0-.18-.18.27.27,0,0,0-.26.06l-.66.66a3.32,3.32,0,0,0-.65.93l-.74,1.55a2.87,2.87,0,0,1-.46.69h0a3.32,3.32,0,0,1-.54.52.25.25,0,0,0-.09.29.28.28,0,0,0,.25.18h2.86a1.32,1.32,0,0,0,1.06-.53A1.33,1.33,0,0,0,14.92,15.09Z"/><path class="cls-2" d="M17.78,7.15A9.32,9.32,0,0,0,14.5,2.48,9.21,9.21,0,0,0,.16,7.15,1.88,1.88,0,0,0,.64,9.06L4.55,13a2.91,2.91,0,0,1,.56.79l.74,1.55a3.46,3.46,0,0,0,6.24,0l.74-1.55a2.88,2.88,0,0,1,.55-.79L17.3,9.06A1.9,1.9,0,0,0,17.78,7.15Z"/><path class="cls-1" d="M17.78,7.15a9.26,9.26,0,0,0-5.41-5.87c.25.16.5.33.74.51a9.3,9.3,0,0,1,3.28,4.66,1.92,1.92,0,0,1-.48,1.92L12,12.29a2.83,2.83,0,0,0-.55.78l-.74,1.55a3.43,3.43,0,0,1-3.12,2,3.75,3.75,0,0,1-.82-.09,3.47,3.47,0,0,0,5.33-1.18l.74-1.55a2.88,2.88,0,0,1,.55-.79L17.3,9.06A1.9,1.9,0,0,0,17.78,7.15Z"/><path class="cls-3" d="M9,9.13A6.44,6.44,0,0,0,3.59,12l1,1a2.91,2.91,0,0,1,.56.79l.74,1.55a3.46,3.46,0,0,0,6.24,0l.74-1.55a2.88,2.88,0,0,1,.55-.79l1-1A6.43,6.43,0,0,0,9,9.13Z"/><path class="cls-4" d="M13.39,10.89,12,12.29a2.83,2.83,0,0,0-.55.78l-.74,1.55a3.43,3.43,0,0,1-3.12,2,3.75,3.75,0,0,1-.82-.09,3.46,3.46,0,0,0,5.33-1.18l.74-1.55a2.88,2.88,0,0,1,.55-.79l1-1A6.4,6.4,0,0,0,13.39,10.89Z"/><path class="cls-3" d="M13.34,1.74,11.57,8.33a.26.26,0,0,1-.25.19h-.07a.27.27,0,0,1-.19-.32l1.8-6.7Q13.1,1.61,13.34,1.74ZM6.69,8.52a.26.26,0,0,0,.18-.32L5.08,1.5q-.24.1-.48.24L6.37,8.33a.26.26,0,0,0,.25.19Zm9.45-4.45-3,5.12a.25.25,0,0,0,.1.35.2.2,0,0,0,.13,0,.26.26,0,0,0,.22-.13l2.84-4.92A5,5,0,0,0,16.14,4.07ZM9.23,7.89V.64H8.71V7.89A.25.25,0,0,0,9,8.15.26.26,0,0,0,9.23,7.89ZM1.79,4.07c-.11.15-.23.3-.34.46L4.29,9.45a.28.28,0,0,0,.23.13.22.22,0,0,0,.13,0,.25.25,0,0,0,.1-.35Z"/><path class="cls-3" d="M16.48,4.53,16,5.39c-.09-.19-.18-.38-.28-.57l.43-.75C16.26,4.22,16.37,4.37,16.48,4.53ZM12.83,1.59l.45.33.06-.18q-.24-.13-.48-.24Z"/><path class="cls-4" d="M11.56,13.23a.24.24,0,0,1-.23-.14,2.67,2.67,0,0,0-4.72,0,.26.26,0,0,1-.46-.24,3.18,3.18,0,0,1,5.64,0,.26.26,0,0,1-.11.35A.27.27,0,0,1,11.56,13.23Z"/><path class="cls-5" d="M11.68,13.2a.26.26,0,0,0,.11-.35l-.11-.19a3.38,3.38,0,0,0-.24.41l0,.1a.27.27,0,0,0,.17.06A.27.27,0,0,0,11.68,13.2Z"/></svg>