<svg id="Layer_1" data-name="Layer 1" xmlns="http://www.w3.org/2000/svg" viewBox="0 0 18 18"><defs><style>.cls-1{fill:#af4343;}.cls-2{fill:#8e2f2f;}.cls-3{fill:#d68a8a;}</style></defs><title>axh</title><path class="cls-1" d="M0,10V15.5H1.32A2.71,2.71,0,0,0,3.75,14h0c.46-.92,2.9-1.5,3.93-1.5h.85a6.11,6.11,0,0,0,5.25-3l4-4.24A1.19,1.19,0,0,0,18,4.67h0A1.17,1.17,0,0,0,16.83,3.5H12L10.62,3c-2.76-.92-7.34.06-9,2.48l0,0-.55.81A6.51,6.51,0,0,0,0,10Z"/><path class="cls-2" d="M9,11.5a.5.5,0,0,1-.5-.5V6.5A3.5,3.5,0,0,1,12,3a.5.5,0,0,1,.5.5A.5.5,0,0,1,12,4,2.5,2.5,0,0,0,9.5,6.5V11A.5.5,0,0,1,9,11.5Z"/><path class="cls-3" d="M1.94,7.5a.23.23,0,0,1-.11,0,.25.25,0,0,1-.11-.33A6.85,6.85,0,0,1,6.8,3.63a.27.27,0,0,1,.28.22.26.26,0,0,1-.23.28A6.43,6.43,0,0,0,2.16,7.36.24.24,0,0,1,1.94,7.5Z"/><path class="cls-2" d="M8.53,12.5H7.68c-1,0-3.47.58-3.93,1.5a2.64,2.64,0,0,1-.45.64l.84,0a6.19,6.19,0,0,0,5.07-2.23A5.06,5.06,0,0,1,8.53,12.5Z"/></svg>