<svg id="Layer_1" data-name="Layer 1" xmlns="http://www.w3.org/2000/svg" viewBox="0 0 18 18"><defs><style>.cls-1{fill:#eac6a0;}.cls-2{fill:#dbad83;}</style></defs><title>axh</title><path class="cls-1" d="M3.08,2.63a.71.71,0,0,0-1,.36A6.51,6.51,0,0,1,1,4.74C-.38,6.15-.74,11,4,10.73S9.49,4.88,6.79,3.81C4.86,3.05,3.79,3,3.08,2.63Z"/><path class="cls-2" d="M5.29,10.3H5.21A.25.25,0,0,1,5.05,10,3.86,3.86,0,0,0,3.48,5.37a.25.25,0,1,1,.25-.44,4.41,4.41,0,0,1,1.79,5.19A.24.24,0,0,1,5.29,10.3Z"/><path class="cls-1" d="M15.56,2.24A.63.63,0,0,0,14.69,2a5.86,5.86,0,0,1-1.82.56C11.14,2.76,8.16,6,11.6,8.45s7.22-1,5.91-3.28C16.59,3.54,15.88,2.88,15.56,2.24Z"/><path class="cls-2" d="M12.93,9a.26.26,0,0,1-.21-.11.25.25,0,0,1,.06-.35,3.5,3.5,0,0,0,1.5-4.11.24.24,0,0,1,.14-.32.26.26,0,0,1,.33.14,4,4,0,0,1-1.68,4.7A.3.3,0,0,1,12.93,9Z"/><path class="cls-1" d="M11.68,9.66a.63.63,0,0,0-.87-.28A5.86,5.86,0,0,1,9,9.94c-1.74.24-4.72,3.45-1.27,5.93s7.21-1,5.91-3.28C12.7,11,12,10.3,11.68,9.66Z"/><path class="cls-2" d="M9,16.39a.24.24,0,0,1-.2-.11.25.25,0,0,1,.06-.35,3.46,3.46,0,0,0,1.5-4.11.25.25,0,0,1,.14-.32.24.24,0,0,1,.32.14,4,4,0,0,1-1.67,4.7A.3.3,0,0,1,9,16.39Z"/></svg>