<svg id="Layer_1" data-name="Layer 1" xmlns="http://www.w3.org/2000/svg" viewBox="0 0 18 18"><defs><style>.cls-1{fill:#f98500;}.cls-2{fill:#f27900;}.cls-3{fill:#e66000;}.cls-4{fill:#ff9419;}.cls-5{fill:#8cb571;}.cls-6{fill:#57843d;}.cls-7{fill:#ffe17d;}.cls-8{fill:#ffd164;}.cls-9{fill:#c48d66;}.cls-10{fill:#d29b6e;}</style></defs><title>axh</title><path class="cls-1" d="M13.85,7.65A4.87,4.87,0,1,1,9,2.79,4.87,4.87,0,0,1,13.85,7.65Z"/><path class="cls-2" d="M12.41,4.2A9.05,9.05,0,0,1,6.2,11.65,4.87,4.87,0,0,0,12.41,4.2Z"/><path class="cls-3" d="M11.52,5.33h.42v.42h-.42Z"/><path class="cls-3" d="M12.37,6.6h.42V7h-.42Z"/><path class="cls-3" d="M10.25,9.56h.42V10h-.42Z"/><path class="cls-3" d="M11.52,9.77h.42v.42h-.42Z"/><path class="cls-3" d="M9.62,10.83H10v.42H9.62Z"/><path class="cls-4" d="M6.27,5,6,4.7l.34-.31.27.33Z"/><path class="cls-4" d="M5.2,7.25l-.42,0A4.14,4.14,0,0,1,5.69,5L6,5.29A3.8,3.8,0,0,0,5.2,7.25Z"/><path class="cls-5" d="M9.63,1.27A1,1,0,0,1,9.19.46H8.77a1.38,1.38,0,0,0,.62,1.16l.11.07.23-.35Z"/><path class="cls-5" d="M8.77,0h.42V3.85H8.77Z"/><path class="cls-5" d="M9.4,1.38a3.39,3.39,0,0,1,4,2.59A3.39,3.39,0,0,1,9.4,1.38Z"/><path class="cls-6" d="M12.83,2.66a5.89,5.89,0,0,1-2.86,0A3.38,3.38,0,0,0,13.43,4,3.4,3.4,0,0,0,12.83,2.66Z"/><path class="cls-3" d="M9,4a1.33,1.33,0,0,1-.75-.23l.23-.35a.94.94,0,0,0,1,0l.23.35A1.33,1.33,0,0,1,9,4Z"/><path class="cls-7" d="M18,7.89a.66.66,0,0,0-.86-.42l-.39.14a3.05,3.05,0,0,0-1,.62,15.15,15.15,0,0,1-5.7,3.4C5,13.17,2.27,8.85,1.68,7.76L1.09,9a2.66,2.66,0,0,1,.62,1.33C1.88,12.63,4.47,17,11,15c2.59-.79,5.85-2.51,6.93-6.77A.63.63,0,0,0,18,7.89Z"/><path class="cls-8" d="M18,7.89a.66.66,0,0,0-.35-.4A8.64,8.64,0,0,1,15,11.6a9.11,9.11,0,0,1-5.76,2.13H9A6.36,6.36,0,0,1,2.9,9.5,9.47,9.47,0,0,1,1.68,7.76L1.09,9a2.66,2.66,0,0,1,.62,1.33C1.88,12.63,4.47,17,11,15a12.82,12.82,0,0,0,2.79-1.21h0A8.77,8.77,0,0,0,18,8.25.63.63,0,0,0,18,7.89Z"/><path class="cls-9" d="M17.1,7.47l-.2.08,1,1c0-.1.06-.19.08-.29a.63.63,0,0,0,0-.36A.66.66,0,0,0,17.1,7.47Z"/><path class="cls-7" d="M17.27,12.32l-.43,0a3,3,0,0,0-1.18.31A15.86,15.86,0,0,1,9,14.32c-5.5,0-6.87-5.11-7.12-6.38a1.24,1.24,0,0,0-.24-.52L1,6.69a.28.28,0,0,0-.43,0l-.47.47a.29.29,0,0,0,0,.37c.36.52,1.26,2,1,3C.56,12.85,1.81,18,9,18c2.81,0,6.57-.73,8.94-4.64A.62.62,0,0,0,18,13,.69.69,0,0,0,17.27,12.32Z"/><path class="cls-8" d="M17.77,12.5A9.9,9.9,0,0,1,9.1,16.69c-6.16,0-7.95-3.82-8-6.37l0,.2C.56,12.85,1.81,18,9,18c2.81,0,6.57-.73,8.94-4.64A.62.62,0,0,0,18,13,.66.66,0,0,0,17.77,12.5Z"/><path class="cls-10" d="M1.73,7.63a2.39,2.39,0,0,0-.13-.21L1,6.69a.28.28,0,0,0-.43,0l-.47.47a.29.29,0,0,0,0,.37,7.05,7.05,0,0,1,.6,1Z"/><path class="cls-9" d="M17.27,12.32l-.23,0,.7,1.29.16-.27A.62.62,0,0,0,18,13,.69.69,0,0,0,17.27,12.32Z"/></svg>