<svg id="Layer_1" data-name="Layer 1" xmlns="http://www.w3.org/2000/svg" viewBox="0 0 18 18"><defs><style>.cls-1{fill:#57843d;}.cls-2{fill:#8cb571;}.cls-3{fill:#709955;}.cls-4{fill:#c65532;}.cls-5{fill:#9b4d38;}</style></defs><title>axh</title><path class="cls-1" d="M15.1,5.93a2.23,2.23,0,0,0-2.33.53,2.44,2.44,0,0,0-.86-.57,2,2,0,0,0-.35-.09,2.22,2.22,0,1,0-2.78,3,1.58,1.58,0,0,0,.36.09,2.21,2.21,0,0,0,3.59.64,2.28,2.28,0,0,0,.85.57A2.22,2.22,0,0,0,15.1,5.93Z"/><path class="cls-2" d="M8.43,7.13l.38,1A5.28,5.28,0,0,1,9,12.5H9l1.86.67.3-.83a4.53,4.53,0,0,1,1.59-2.2l1.43-1.29-1.66-.46L10.9,10l-.4-2.13Z"/><path class="cls-3" d="M17.8,7.56A1.91,1.91,0,0,0,16,5a3.88,3.88,0,0,0,.22-.46,2.89,2.89,0,0,0-5-2.72,2.38,2.38,0,0,0-.72-.43A2.23,2.23,0,0,0,7.6,2.7a2.2,2.2,0,0,0,0,1.54,1.42,1.42,0,0,0-.89.87A1.45,1.45,0,0,0,7.6,7a1.57,1.57,0,0,0,.52.08,2.36,2.36,0,0,0,3.51,1.6,1.88,1.88,0,0,0,2.3.5,1.5,1.5,0,0,0,.48.3,1.47,1.47,0,0,0,1.76-.65A1.9,1.9,0,0,0,17.8,7.56Z"/><circle class="cls-2" cx="13.75" cy="2.76" r="1.42"/><circle class="cls-2" cx="9.38" cy="3.01" r="0.79"/><circle class="cls-2" cx="16.44" cy="6.42" r="0.79"/><path class="cls-1" d="M4.68,11.52c-.63-.64-.83-.94-1.46-1.58C3.53,11.1,2,11.68,1.28,11.49.21,11.21-.36,9.55,1,9.39c-1.37.16-1.42-2.8.72-1.94C0,4.54,4.66,4,3.53,7,5,4.62,6.71,7.9,4.58,8.88l1.2,1.64Z"/><path class="cls-3" d="M5.58,10.19c-.4-.73-.61-1-1-1.72.9.61,1.73-.5,1.74-1.2,0-1-1.26-2-1.69-.88.44-1.12-2-2-1.8,0C.78,4.11-.73,8,2.05,7.87c-2.32.51,0,3,1.33,1.45l1.11,1.51Z"/><path class="cls-4" d="M3.43,12h0A2.81,2.81,0,0,1,6.38,9.31h0a2.83,2.83,0,0,1,2.34,1.48l2.76,5.14a1.36,1.36,0,0,1-2,1.77L4.68,14.46A2.79,2.79,0,0,1,3.43,12Z"/><path class="cls-5" d="M5.28,14.25a3.74,3.74,0,0,1,1-1.6.25.25,0,0,0,0-.34.24.24,0,0,0-.34,0,4.26,4.26,0,0,0-1.08,1.8A.25.25,0,0,0,5,14.4a.24.24,0,0,0,.3-.15Z"/><path class="cls-5" d="M9.63,13.47a2,2,0,0,0-1.35,1,.24.24,0,0,0,.14.31.24.24,0,0,0,.31-.13s0,0,0,0l0-.05.05-.07a1.13,1.13,0,0,1,.1-.13l0,0h0L9,14.3l.13-.11.07,0,0,0h0L9.4,14,9.56,14l0,0s0,0,0,0l.09,0a.24.24,0,1,0-.06-.47Z"/><path class="cls-5" d="M6.87,12a.24.24,0,0,0,0-.48.24.24,0,0,0,0,.48Z"/></svg>