<svg id="Layer_1" data-name="Layer 1" xmlns="http://www.w3.org/2000/svg" viewBox="0 0 18 18"><title>axh</title><path d="M17,8.53l.11-.13a1.84,1.84,0,0,0,.39-1.15,1.62,1.62,0,0,0-1.31-1.68A14.6,14.6,0,0,0,17.9.87a.47.47,0,0,0-.11-.41.46.46,0,0,0-.38-.18H.53A.48.48,0,0,0,.15.46.47.47,0,0,0,0,.87,14.62,14.62,0,0,0,1.78,5.56,1.6,1.6,0,0,0,.38,7.25a1.88,1.88,0,0,0,.4,1.17l.11.12a1.34,1.34,0,0,0-.48.3A1.25,1.25,0,0,0,0,9.75v.68a7.66,7.66,0,0,0,.88,3.5l2,3.73a.51.51,0,0,0,.44.26H7.62a.53.53,0,0,0,.45-.63c0-.05-.05-.22-.11-.51a7.5,7.5,0,0,0-.41-1.4,4.68,4.68,0,0,0,1.39.21,4.62,4.62,0,0,0,1.47-.24,8.36,8.36,0,0,0-.44,1.5c-.05.23-.08.39-.09.44a.5.5,0,0,0,0,.12.49.49,0,0,0,.47.51h4.26a.49.49,0,0,0,.44-.26l2-3.73a7.54,7.54,0,0,0,.88-3.5V9.75a1.25,1.25,0,0,0-.38-.91A1.19,1.19,0,0,0,17,8.53Zm-2,2.68-.08.33-.09,0C14.85,11.42,14.89,11.31,15,11.21Zm1.52-4a.87.87,0,0,1-.16.52l-.73.85V6.55H16C16.23,6.55,16.47,6.84,16.47,7.25Zm.32-6A13.15,13.15,0,0,1,15,5.48a19.6,19.6,0,0,0-5.73-4.2Zm-12.55,0c-.64.44-1.11.84-1.15.87a.5.5,0,0,0,0,.7A.48.48,0,0,0,3.42,3a.5.5,0,0,0,.33-.12,11.6,11.6,0,0,1,2.5-1.62h.63l.2.08.07,0,.25.1.08,0A21.4,21.4,0,0,0,2.9,5.47,13.07,13.07,0,0,1,1.15,1.28ZM3.11,11.53h0l0-.11Zm-1.27-5h.47V8.67l-.76-.89a.86.86,0,0,1-.17-.53C1.38,6.84,1.62,6.55,1.84,6.55ZM3.65,16.92,1.81,13.46a6.56,6.56,0,0,1-.77-3V9.75a.29.29,0,0,1,.09-.21.3.3,0,0,1,.48.14l.61,2.54h0a.39.39,0,0,0,.06.15l1.35,2.16A.5.5,0,1,0,4.48,14l-1-1.53.31-.05a.66.66,0,0,1,.14,0h.1a.84.84,0,0,1,.27.13A7.78,7.78,0,0,1,7,16.92Zm3.17-3A8.82,8.82,0,0,0,5,11.8a1.66,1.66,0,0,0-.68-.33,4.33,4.33,0,0,1-1-2.68V6.54c.33-.41.68-.79,1-1.15a.47.47,0,0,0,.32-.08,1.74,1.74,0,0,1,2.12.2.52.52,0,0,0,.38.17.54.54,0,0,0,.33-.12.51.51,0,0,0,0-.71,2.5,2.5,0,0,0-1.77-.79,23.09,23.09,0,0,1,2.8-2A23.56,23.56,0,0,1,12,4.1a2.5,2.5,0,0,0-1.41.75.51.51,0,0,0,.05.71.5.5,0,0,0,.33.12.48.48,0,0,0,.37-.17,1.74,1.74,0,0,1,2.12-.2h0a12,12,0,0,1,1.09,1.16V8.79a4.29,4.29,0,0,1-1,2.69,1.75,1.75,0,0,0-.62.32,8.75,8.75,0,0,0-1.77,2A3.66,3.66,0,0,1,6.82,13.91ZM16.9,10.42a6.55,6.55,0,0,1-.76,3l-1.85,3.46H11a7.74,7.74,0,0,1,2.63-4.35.72.72,0,0,1,.23-.12h0l.07,0a.61.61,0,0,1,.19,0l.31.05-1,1.53a.51.51,0,0,0,.16.69.49.49,0,0,0,.69-.16l1.35-2.16a.69.69,0,0,0,.07-.15h0l.61-2.54a.3.3,0,0,1,.49-.14.32.32,0,0,1,.08.21Z"/><path d="M7.84,7.34a.5.5,0,0,0-.69-.17,1.32,1.32,0,0,1-1.38,0,.5.5,0,0,0-.69.17A.49.49,0,0,0,5.25,8a2.29,2.29,0,0,0,1.21.34A2.31,2.31,0,0,0,7.67,8,.5.5,0,0,0,7.84,7.34Z"/><path d="M12.94,7.34a.5.5,0,0,0-.69-.17,1.32,1.32,0,0,1-1.38,0,.5.5,0,0,0-.69.17.49.49,0,0,0,.17.68,2.32,2.32,0,0,0,2.42,0A.5.5,0,0,0,12.94,7.34Z"/><path d="M9.29,10.51,9,10.72a.45.45,0,0,1-.36,0h0A9.74,9.74,0,0,0,9,8.36a.5.5,0,0,0-.5-.5.5.5,0,0,0-.5.5,9.8,9.8,0,0,1-.45,2.41.49.49,0,0,0,.19.56l.29.21a1.38,1.38,0,0,0,.76.21,1.34,1.34,0,0,0,.75-.21l.3-.21a.5.5,0,0,0,.12-.7A.51.51,0,0,0,9.29,10.51Z"/></svg>