<svg id="Layer_1" data-name="Layer 1" xmlns="http://www.w3.org/2000/svg" viewBox="0 0 18 18"><title>axh</title><path d="M17.42,10.14H16.06l.26-.26A4.79,4.79,0,0,0,9.55,3.11l-.65.66-.66-.66A4.78,4.78,0,0,0,1.48,9.88l.26.26H.58a.5.5,0,0,0-.5.5.5.5,0,0,0,.5.5H2.74l5.8,5.8a.51.51,0,0,0,.36.15.49.49,0,0,0,.35-.15l5.81-5.8h2.36a.5.5,0,0,0,.5-.5A.5.5,0,0,0,17.42,10.14Zm-15.24-1A3.79,3.79,0,0,1,4.86,2.71,3.74,3.74,0,0,1,7.53,3.82l1,1a.51.51,0,0,0,.71,0l1-1a3.78,3.78,0,0,1,5.35,5.35l-1,1H12.73L11.16,5.42a.49.49,0,0,0-.49-.34.49.49,0,0,0-.47.38L8.93,10.53,7.79,7.11a.49.49,0,0,0-.44-.34A.48.48,0,0,0,6.87,7l-1.55,3.1H3.15ZM8.9,15.88,4.15,11.14H5.63a.51.51,0,0,0,.45-.28L7.22,8.57l1.31,3.91a.5.5,0,0,0,.47.34H9a.49.49,0,0,0,.46-.38l1.27-5.07,1.15,3.42a.48.48,0,0,0,.47.35h1.27Z"/></svg>