<svg id="Layer_1" data-name="Layer 1" xmlns="http://www.w3.org/2000/svg" viewBox="0 0 18 18"><defs><style>.cls-1{fill:#556080;}.cls-2{fill:#2c3e50;}.cls-3{fill:#95a5a5;}.cls-4{fill:#48656d;}.cls-5{fill:#d1d4d1;}.cls-6{fill:#85c99a;}.cls-7{fill:#d25627;}.cls-8{fill:#f18d46;}.cls-9{fill:#e57e25;}.cls-10{fill:#fac176;}</style></defs><title>axh</title><path class="cls-1" d="M17.85.66v3a1.45,1.45,0,0,1,0,.3,1.5,1.5,0,0,1-1.48,1.21H9.69A1.5,1.5,0,0,1,8.21,4a.75.75,0,0,1,0-.3v-3a.29.29,0,0,1,.3-.3h9.07A.29.29,0,0,1,17.85.66Z"/><path class="cls-2" d="M17.85.66v3a1.51,1.51,0,0,1-1.51,1.51H13V.36h4.57A.29.29,0,0,1,17.85.66Z"/><path class="cls-3" d="M17.85,6.71V17.29a.6.6,0,0,1-.6.6H8.78a.6.6,0,0,1-.6-.6V6.71A1.51,1.51,0,0,1,9.69,5.19h6.65A1.52,1.52,0,0,1,17.85,6.71Z"/><path class="cls-4" d="M17.85,6.71V17.29a.6.6,0,0,1-.6.6H13V5.19h3.33A1.52,1.52,0,0,1,17.85,6.71Z"/><path class="cls-5" d="M9.69,3.68a.3.3,0,0,1-.31.3H8.21a.75.75,0,0,1,0-.3v-.3h1.2A.31.31,0,0,1,9.69,3.68Z"/><path class="cls-5" d="M17.85,3.38v.3a1.45,1.45,0,0,1,0,.3H10.59a.3.3,0,0,1-.3-.3.31.31,0,0,1,.3-.3Z"/><path class="cls-6" d="M9.38,2.78a.31.31,0,0,1-.3-.31v-.9a.31.31,0,1,1,.61,0v.9A.31.31,0,0,1,9.38,2.78Z"/><path class="cls-6" d="M10.59,2.78a.31.31,0,0,1-.3-.31v-.9a.31.31,0,1,1,.61,0v.9A.31.31,0,0,1,10.59,2.78Z"/><path class="cls-6" d="M11.8,2.78a.31.31,0,0,1-.3-.31v-.9a.31.31,0,1,1,.61,0v.9A.31.31,0,0,1,11.8,2.78Z"/><path class="cls-6" d="M13,2.78a.31.31,0,0,1-.3-.31v-.9a.31.31,0,1,1,.61,0v.9A.31.31,0,0,1,13,2.78Z"/><path class="cls-6" d="M14.22,2.78a.31.31,0,0,1-.3-.31v-.9a.31.31,0,1,1,.61,0v.9A.31.31,0,0,1,14.22,2.78Z"/><path class="cls-6" d="M15.43,2.78a.31.31,0,0,1-.3-.31v-.9a.31.31,0,0,1,.3-.31.3.3,0,0,1,.3.31v.9A.3.3,0,0,1,15.43,2.78Z"/><path class="cls-6" d="M16.64,2.78a.3.3,0,0,1-.3-.31v-.9a.3.3,0,1,1,.6,0v.9A.3.3,0,0,1,16.64,2.78Z"/><path class="cls-2" d="M8.18,8.52h9.67v6.05H8.18Z"/><path class="cls-1" d="M8.18,8.52H13v6.05H8.18Z"/><path class="cls-7" d="M10.21,15.42a2.11,2.11,0,0,1-2,2.45,2.14,2.14,0,0,1-1.69-.45,2.11,2.11,0,0,1-.76-1.58c-.15-1.48.62-4.13,1.85-4.24S10.07,13.93,10.21,15.42Z"/><path class="cls-8" d="M8.5,16.48a.32.32,0,0,1-.17,0,.48.48,0,0,1-.16-.08.76.76,0,0,1-.11-.14A.48.48,0,0,1,8,16.07a.43.43,0,0,1,.19-.4.45.45,0,0,1,.45-.05.48.48,0,0,1,.26.37.88.88,0,0,1,0,.17.44.44,0,0,1-.39.32Z"/><path class="cls-9" d="M3.62,17.6a2.1,2.1,0,0,1-3-1,2.1,2.1,0,0,1,1-3c1.33-.67,4.07-.91,4.63.2S5,16.94,3.62,17.6Z"/><path class="cls-10" d="M2,16.4a.55.55,0,0,1,0-.17.44.44,0,0,1,.11-.33l.14-.11a.45.45,0,0,1,.34,0,.38.38,0,0,1,.15.09.42.42,0,0,1,.16.39.45.45,0,0,1-.25.35.47.47,0,0,1-.17,0A.43.43,0,0,1,2,16.4Z"/></svg>