<svg id="Layer_1" data-name="Layer 1" xmlns="http://www.w3.org/2000/svg" viewBox="0 0 18 18"><title>axh</title><path d="M3.23,12.2a.5.5,0,0,0-.5-.5H1.15a.5.5,0,0,0,0,1H2.73A.5.5,0,0,0,3.23,12.2Z"/><path d="M5.31,14.4H2.17a.5.5,0,0,0-.5.5.5.5,0,0,0,.5.5H5.31a.5.5,0,0,0,.5-.5A.51.51,0,0,0,5.31,14.4Z"/><path d="M18,12.55a3.33,3.33,0,0,0-2-3.11l-.1,0-1.71-.33a1.22,1.22,0,0,0,.53-1.54A1.26,1.26,0,0,0,14,6.87a1.28,1.28,0,0,0-1,0l-.13,0-.11-.29a1.24,1.24,0,0,0-.92-2.3,2,2,0,0,1,.21-1.78.51.51,0,0,0,0-.6.5.5,0,0,0-.57-.15A5.89,5.89,0,0,0,8.6,4.35l-.06.11L7,3.62l-.78-2a.49.49,0,0,0-.37-.31.5.5,0,0,0-.46.15L1.88,5.29l-.79.33a1.68,1.68,0,0,0-1,1.21A1.7,1.7,0,0,0,.5,8.35l1.8,1.92a.76.76,0,0,0,.39.16,1.76,1.76,0,0,1,1.58,1.75.51.51,0,0,0,.21.41L7,14.32a9.74,9.74,0,0,0,5.55,1.73h3a2,2,0,0,0,1.58-.79,1.92,1.92,0,0,0,.37-1.4A1.91,1.91,0,0,0,18,12.55Zm-1,0a.8.8,0,0,1-.75.84H12.57a5.87,5.87,0,0,1-4.32-1.92l-.17-.18,2.12-1.23a5,5,0,0,0,2.36,1.22,3.94,3.94,0,0,0,.87.1,2.8,2.8,0,0,0,2-.81l.2-.19h0A2.37,2.37,0,0,1,17,12.55ZM8.31,5.47l.13.46L7.41,6c0-.4,0-.78-.09-1.1ZM7.39,7l1.26-.11A5,5,0,0,0,9.53,9.3L7.38,10.55l-.76-.82A5.88,5.88,0,0,0,7.39,7Zm6.16.75a.25.25,0,0,1,.1.48L13,8.52h0l-.63.26a.26.26,0,0,1-.33-.13.29.29,0,0,1,0-.19.26.26,0,0,1,.14-.14l1.25-.52ZM12.33,5.26a.25.25,0,0,1,.23.15.26.26,0,0,1-.13.33l-1.25.52a.26.26,0,0,1-.33-.13h0A.26.26,0,0,1,11,5.8l1.25-.52Zm-1.54-1.9A2.88,2.88,0,0,0,11,4.72l-.37.16a1.25,1.25,0,0,0,.48,2.4,1.18,1.18,0,0,0,.48-.1L11.91,7l.11.29-.2.08A1.26,1.26,0,0,0,11.15,9a1.25,1.25,0,0,0,1.15.77,1.23,1.23,0,0,0,.49-.1l.15-.06a.47.47,0,0,0,.36.29l1,.21a2.13,2.13,0,0,1-1.58.16A4,4,0,0,1,9.6,6.37s0,0,0,0v0a0,0,0,0,1,0,0,.22.22,0,0,1,0-.08l-.31-1,.2-.34A4.84,4.84,0,0,1,10.79,3.36ZM5.62,2.75l.55,1.37c.06.27.66,3-.27,4.84L2.85,5.71ZM16.29,14.66a1,1,0,0,1-.78.39h-3a8.76,8.76,0,0,1-5-1.55l-2.3-1.59A2.77,2.77,0,0,0,2.91,9.45L1.23,7.66A.67.67,0,0,1,1.06,7a.7.7,0,0,1,.41-.5L2,6.3l5.48,5.85a7,7,0,0,0,5.05,2.24h3.66l.19,0A1.08,1.08,0,0,1,16.29,14.66Z"/></svg>