<svg id="Layer_1" data-name="Layer 1" xmlns="http://www.w3.org/2000/svg" viewBox="0 0 18 18"><defs><style>.cls-1{fill:#e29320;}.cls-2{fill:#ffb74f;}.cls-3{fill:#cc8629;}</style></defs><title>axh</title><path class="cls-1" d="M15.75,13.59a2,2,0,0,1,1.64-1.93l.1-4.38L.35,5.77v2.4A2,2,0,0,1,1.76,10,2,2,0,0,1,.35,11.91v3.28l16.92,1.74,0-1.43A2,2,0,0,1,15.75,13.59Z"/><path class="cls-2" d="M10.57,3.35a2,2,0,0,1-1.22.43,2,2,0,0,1-2-2,2.48,2.48,0,0,1,0-.27L6.43,1C.91,1.59.35,5.77.35,5.77L17.49,7.28Z"/><circle class="cls-3" cx="5.39" cy="9.52" r="1.45"/><circle class="cls-3" cx="12.15" cy="9.88" r="1.8"/><circle class="cls-3" cx="8.39" cy="13.4" r="0.99"/><ellipse class="cls-1" cx="4.93" cy="3.81" rx="0.99" ry="0.66"/><ellipse class="cls-1" cx="9.85" cy="5.35" rx="0.67" ry="0.45"/></svg>