<svg xmlns="http://www.w3.org/2000/svg" width="100" height="52.901" viewBox="0 0 100 52.901">
  <g id="meter-2" transform="translate(0.164)">
    <path id="Path_187" data-name="Path 187" d="M410.108,385.744a42.515,42.515,0,0,1,42.354,38.844,3.846,3.846,0,0,0,3.813,3.562h0a3.806,3.806,0,0,0,3.821-4.061,50.153,50.153,0,0,0-99.976,0,3.806,3.806,0,0,0,3.821,4.061h0a3.846,3.846,0,0,0,3.813-3.562A42.515,42.515,0,0,1,410.108,385.744Z" transform="translate(-360.271 -375.251)" fill="rgba(137,137,137,0.2)"/>
    <g id="Group_70" data-name="Group 70" transform="translate(52.698 5.468) rotate(90)">
      <ellipse id="Ellipse_4" data-name="Ellipse 4" cx="2.839" cy="2.839" rx="2.839" ry="2.839" transform="translate(41.756 5.678) rotate(-90)" fill="#fff" opacity="0"/>
      <path id="Path_13" data-name="Path 13" d="M2.129,0,.009,23.319a2.126,2.126,0,0,0,.616,1.7h0a2.126,2.126,0,0,0,3.009,0h0a2.126,2.126,0,0,0,.616-1.7Z" transform="translate(0 4.968) rotate(-90)" fill="#898989"/>
    </g>
    <line id="Line_33" data-name="Line 33" y1="13.356" transform="translate(49.867 0)" fill="none" stroke="#898989" stroke-width="1"/>
  </g>
</svg>
