<?xml version="1.0" encoding="iso-8859-1"?>
<!-- Generator: Adobe Illustrator 21.0.0, SVG Export Plug-In . SVG Version: 6.00 Build 0)  -->
<svg xmlns="http://www.w3.org/2000/svg" xmlns:xlink="http://www.w3.org/1999/xlink" version="1.1" id="Capa_1" x="0px" y="0px" viewBox="0 0 512.003 512.003" style="enable-background:new 0 0 512.003 512.003;" xml:space="preserve" width="512" height="512">
<g>
	<polygon style="fill:#E0E0E0;" points="262.855,350.597 393.134,220.318 350.708,177.891 209.061,319.538  "/>
	<path style="fill:#E0E0E0;" d="M218.922,356.843v3.216c0,20.557,16.297,37.766,36.851,38.09   c18.434,0.291,33.878-12.736,37.338-30.086L37.124,220.271l-30,51.961l127.768,73.767h73.185   C214.067,345.999,218.922,350.854,218.922,356.843z"/>
	<path style="fill:#E0E0E0;" d="M293.515,365.616c0.211-1.609,0.321-3.251,0.321-4.917v-3.855c0-5.989,4.855-10.844,10.844-10.844   h62.045l138.154-37.018l-15.529-57.956l-173.38,46.457l-53.114,53.114l27.486,15.869L293.515,365.616z"/>
	<path style="fill:#1976D2;" d="M486.807,463.526H25.95v26.476c0,8.008,6.492,14.5,14.5,14.5h431.857c8.008,0,14.5-6.492,14.5-14.5   V463.526z"/>
	<path style="fill:#42A5F5;" d="M293.835,356.843v3.115c0,21.003-17.188,38.591-38.187,38.19   c-20.35-0.389-36.726-17.007-36.726-37.45v-3.855c0-5.989-4.855-10.844-10.844-10.844H20.033c-6.713,0-12.155,5.442-12.155,12.155   v93.217c0,6.713,5.442,12.155,12.155,12.155h472.69c6.713,0,12.155-5.442,12.155-12.155v-93.217   c0-6.713-5.442-12.155-12.155-12.155H304.68C298.69,345.999,293.835,350.854,293.835,356.843z"/>
	<path style="fill:#1976D2;" d="M492.724,345.999h-23.923c-2.166,0-3.922,1.756-3.922,3.922v24.689   c0,38.061-30.854,68.915-68.915,68.915H11.801c-2.166,0-3.922,1.756-3.922,3.922v3.968c0,6.688,5.421,12.109,12.109,12.109h472.737   c6.713,0,12.154-5.442,12.154-12.154v-93.218C504.879,351.441,499.437,345.999,492.724,345.999z"/>
	
		<rect x="12.969" y="250.419" transform="matrix(0.866 0.5 -0.5 0.866 151.102 -3.0828)" style="fill:#FFCA28;" width="136.669" height="60"/>
	<path style="fill:#FFA000;" d="M37.124,220.271l-10,17.32l68.433,39.51c11.004,6.353,14.775,20.425,8.421,31.429l-8.496,14.716   l30,17.32l30-51.962L37.124,220.271z"/>
	
		<rect x="255.267" y="217.424" transform="matrix(-0.7071 0.7071 -0.7071 -0.7071 727.377 193.5585)" style="fill:#FFCA28;" width="136.669" height="60"/>
	<path style="fill:#FFA000;" d="M350.708,177.891l-20,20l7.217,7.217c8.4,8.4,8.4,22.019,0,30.419l-61.43,61.43l20,20l96.639-96.639   L350.708,177.891z"/>
	
		<rect x="362.774" y="267.689" transform="matrix(-0.9659 0.2588 -0.2588 -0.9659 924.574 473.656)" style="fill:#FFCA28;" width="136.669" height="60"/>
	<path style="fill:#FFA000;" d="M489.349,251.025l-32.32,8.66l4.046,15.099c2.101,7.841-2.552,15.9-10.393,18.001l-85.495,22.908   l7.679,28.66l132.012-35.372L489.349,251.025z"/>
	<path style="fill:#757575;" d="M256.378,156.359c0-25.681-20.819-46.5-46.5-46.5h-37.5c16.963,0,30.714-13.751,30.714-30.714   c0-16.963-13.751-30.714-30.714-30.714h131.902c11.097,0,20.547-8.629,20.941-19.718c0.414-11.642-8.901-21.21-20.451-21.21H87.548   c-11.096,0-20.547,8.628-20.942,19.718C66.193,38.862,75.508,48.43,87.058,48.43H38.477c-16.736,0-30.883,13.122-31.341,29.851   c-0.476,17.357,13.453,31.577,30.702,31.577h94.67c-14.755,0-26.67,12.164-26.262,27.011c0.392,14.31,12.493,25.534,26.809,25.534   h75.025c6.24,0,11.299,5.059,11.299,11.299V309.22l37-37V156.359z"/>
	<path d="M492.365,338.363h-68.84l82.918-22.218c3.998-1.072,6.376-5.186,5.303-9.186l-15.506-57.868   c-1.071-4.001-5.184-6.372-9.186-5.303l-69.681,18.671c-4.001,1.072-6.375,5.185-5.303,9.186c1.071,4.001,5.183,6.373,9.186,5.304   l62.436-16.73l11.624,43.379l-117.323,31.436l-11.623-43.378l21.132-5.662c4.001-1.072,6.375-5.185,5.303-9.186   c-1.071-4.001-5.183-6.374-9.186-5.304c-6.159,1.65-36.952,9.901-42.644,11.426l57.255-57.255c2.929-2.929,2.929-7.678,0-10.606   l-42.362-42.362c-2.928-2.927-7.677-2.929-10.607,0l-81.383,81.383v-97.58c0-29.737-24.192-53.93-53.929-53.93h-7.13   c10.479-13.679,10.476-32.661,0-46.335h101.389c15.135,0,27.878-12.077,28.405-26.922c0.564-15.856-12.093-28.944-27.915-28.944   H87.804c-21.796,0-34.842,22.6-25.267,40.867h-23.73c-20.829,0-38.23,16.643-38.791,37.101   c-0.589,21.5,16.618,39.235,38.153,39.235h66.459c-3.868,5.764-5.848,12.568-5.653,19.675c0.496,18.081,15.868,32.79,34.266,32.79   h74.911c2.085,0,3.782,1.696,3.782,3.782v37.385c0,4.142,3.358,7.5,7.5,7.5s7.5-3.358,7.5-7.5v-37.385   c0-10.356-8.425-18.782-18.782-18.782h-74.911c-10.351,0-18.996-8.165-19.271-18.201c-0.289-10.549,8.146-19.264,18.726-19.264   c4.142,0,7.5-3.358,7.5-7.5s-3.358-7.5-7.5-7.5H38.169c-13.032,0-23.519-10.719-23.159-23.824   c0.34-12.413,11.016-22.512,23.797-22.512h48.507c4.142,0,7.5-3.358,7.5-7.5s-3.358-7.5-7.5-7.5   c-7.253,0-13.188-5.989-12.925-13.412c0.245-6.867,6.262-12.455,13.415-12.455h216.894c7.271,0,13.188,6.004,12.925,13.412   c-0.244,6.868-6.262,12.455-13.415,12.455H172.505c-4.142,0-7.5,3.358-7.5,7.5s3.358,7.5,7.5,7.5   c12.774,0,23.167,10.393,23.167,23.167c0,12.775-10.393,23.168-23.167,23.168c-4.142,0-7.5,3.358-7.5,7.5s3.358,7.5,7.5,7.5h37.443   c21.466,0,38.929,17.464,38.929,38.93v112.579l-0.107,0.107c-0.001,0.001-0.002,0.002-0.003,0.002s-0.002,0.002-0.002,0.003   l-21.832,21.832v-44.874c0-4.142-3.358-7.5-7.5-7.5s-7.5,3.358-7.5,7.5v59.874l-4.036,4.036L41.206,213.83   c-3.587-2.072-8.174-0.842-10.245,2.745L1.006,268.458c-2.071,3.587-0.842,8.174,2.745,10.245l103.334,59.66H20.391   c-10.828,0-19.637,8.809-19.637,19.636v93.076c0,10.29,7.961,18.74,18.044,19.556v19.017c0,12.119,9.859,21.978,21.978,21.978   h431.202c12.119,0,21.979-9.859,21.979-21.978V470.63c10.084-0.815,18.044-9.266,18.044-19.556v-93.076   C512.001,347.172,503.193,338.363,492.365,338.363z M351.881,295.538l11.475,42.825h-58.75c-9.658,0-17.575,7.513-18.261,16.998   l-11.285-6.516l44.701-44.702L351.881,295.538z M350.564,188.616l31.756,31.756l-85.886,85.886l-31.756-31.756L350.564,188.616z    M254.071,285.109l31.755,31.756l-24.216,24.216l-40.265-23.247L254.071,285.109z M284.005,371.331   c-4.583,11.319-15.511,19.346-28.213,19.104c-16.164-0.309-29.314-13.72-29.314-29.895v-3.849c0-10.106-8.222-18.328-18.328-18.328   h-71.065l-1.159-0.669l22.455-38.893L284.005,371.331z M17.746,269.463l22.455-38.893l105.189,60.731l-22.455,38.893   L17.746,269.463z M497.001,451.075c0,2.557-2.08,4.636-4.637,4.636h-55.923c-4.143,0-7.5,3.358-7.5,7.5s3.357,7.5,7.5,7.5h42.516   v18.936c0,3.848-3.131,6.978-6.979,6.978H40.777c-3.848,0-6.978-3.13-6.978-6.978v-18.936h367.696c4.143,0,7.5-3.358,7.5-7.5   s-3.357-7.5-7.5-7.5H20.391c-2.557,0-4.637-2.08-4.637-4.636v-93.076c0-2.557,2.08-4.636,4.637-4.636H208.15   c1.835,0,3.328,1.493,3.328,3.328v3.849c0,24.289,19.75,44.427,44.027,44.892c21.276,0.402,39.232-14.4,44.346-34.376   c0.488-1.047,0.71-2.158,0.695-3.256c0.981-5.448,0.67-9.078,0.732-11.109c0-1.835,1.493-3.328,3.328-3.328h187.759   c2.557,0,4.637,2.08,4.637,4.636V451.075z"/>
</g>















</svg>
